<svg data-name="Layer 1" xmlns="http://www.w3.org/2000/svg" viewBox="0 0 341.5 423.2"><path d="M52 337l-9 1-4-4a9 9 0 00-6-6c-3-2-7-3-8-7v-1c-5-1-6-5-8-8-4-3-5-7-5-12a16 16 0 001-6c-1-3 0-4 2-4a22 22 0 015-1c2 0 3-1 2-3a21 21 0 01-1-4c-1-4 0-8 5-10 3-1 4-4 4-7 0-4-1-8 2-11 1-1 0-2-1-3l-5-4c-3-3-3-6-1-9 1-2 0-5-1-7h-3c-5 4-10 4-16 3a7 7 0 01-4-5c-2-4-1-8 1-12 3-10 8-19 10-29a173 173 0 0111-35l7-24 4-23a36 36 0 011-5L22 90c-5-4-5-7-1-13l1-3c-5 0-7-3-8-8a6 6 0 00-2-3 8 8 0 01-1-8c1-4 3-5 7-5h6l-2-5a4 4 0 010-5c4-5 9-6 15-5l7 1 1-1-3-5c-2-5 0-7 4-6l14 1v-3c0-3 2-4 4-3 7 3 15 5 21 11a12 12 0 004 3c9 4 16 11 23 18 1 2 2 3 4 2a2 2 0 012-1c5 2 10 0 15 0l13-3c3-1 4-2 4-5l2-20V11c0-6 2-9 8-11a21 21 0 0115 2c3 2 5 4 4 8-2 7-1 14-1 21a76 76 0 010 15c0 3 1 4 3 4l8-1c6 0 12 0 17 3a6 6 0 004 0 9 9 0 019 2h5a52 52 0 0117-11l7-3a23 23 0 014 0v5a16 16 0 012-1l14-4a3 3 0 013 0l-1 3-6 12c-1 2 0 3 2 3a25 25 0 007 0c2-1 3 0 3 2a8 8 0 000 2c1 2 2 2 3 1l3-4c1-1 1-4 4-2l2-2c2-2 4-4 8-3l6 1a9 9 0 003 0l8-2c5 0 5 1 6 6 0 2 1 4 3 4 3 0 3 1 3 3l-3 9v2a3 3 0 003 0c4-1 4-1 4 3l-2 32-1 8a5 5 0 000 3c3 5 3 9 0 14l-5 13v6l1 28c1 15 5 29 12 42l7 15c2 7-1 12-9 12a47 47 0 01-8-2c-2 0-3 0-4 3 0 4 0 6 4 8 3 1 3 3 2 5l-6 9a15 15 0 012 3c1 4-2 8-7 8l-11 3 2 1c8 2 9 8 10 14 1 8 0 12-9 15-11 5-23 8-35 12l-12 2a5 5 0 00-2 2 2 2 0 00-1 1c-1 11-4 23-2 34a50 50 0 001 7c2 5 5 9 11 10 5 1 9 4 11 9a17 17 0 010 6 52 52 0 01-1 7c-1 6-4 9-10 9a25 25 0 01-5 0l-13-2a21 21 0 01-6-1c-7-4-15-5-22-4a83 83 0 01-27-2c-6-1-12 0-18 1h-16c-7 0-13 1-20 3-3 2-6 2-10 2l-13 3-20 5c-7 2-13 2-18-3l-6-2c-8-2-10-8-5-15a18 18 0 0111-6 19 19 0 007-4l1-4 1-7a9 9 0 00-1-7 13 13 0 01-2-5c0-3-1-5-4-5-3-1-5-2-7-5a18 18 0 00-5-7 121 121 0 00-11-8c-3-2-6-3-6-7zm99 43l2-1c10-2 20-4 31-3l17 3c11 1 22 1 32 3l15 2a8 8 0 005-1v-4a40 40 0 01-3-21l2-17c1-5-1-8-5-10a21 21 0 01-6-5 64 64 0 00-14-13 74 74 0 01-8-6 8 8 0 01-2-3l1-4a13 13 0 012 1 13 13 0 012 2l15 15c11 10 24 12 38 7l26-10a32 32 0 008-4c4-4 4-8 3-13 0-4-3-6-7-7-2 0-3-2-2-5 2-3 5-5 9-4a11 11 0 003 0c4 0 3-3 3-5s0-3-2-4c-4-2-8-1-12 0-4 2-7 0-9-2a3 3 0 01-1-3l3-1 4-1a28 28 0 005-4c4-3 7-6 12-3l-1-6v-5l-6 1c-6 1-8-1-9-7a22 22 0 01-1-3c0-3 2-4 6-3a6 6 0 01-1 2c-3 3 0 5 1 6s4 3 6 1a10 10 0 017-2l12 2c6 0 8-2 5-8l-12-27c-4-9-7-18-8-29l-1-23a31 31 0 00-1-8l-4-5c-3-1-8 3-9 6a7 7 0 01-11 3l-5-3h-5a6 6 0 00-2 5c0 3-1 5-3 6-4 2-7 3-11 1s-6 0-6 4a8 8 0 01-9 8c-2-1-5-1-6 2a14 14 0 00-2 5c0 3-2 4-4 3-6-1-8 3-11 7a26 26 0 01-5 5 32 32 0 01-4 2c3 4 3 10 1 14l-4 14a4 4 0 01-3 2l-10 2-5 1v1a12 12 0 004 1 74 74 0 009-1c2 0 3 0 4 2a39 39 0 003 7c2 3 2 5-1 8-1 2-1 4 1 5l4 3c4 2 3 7-1 8a38 38 0 01-4 2c-2 0-3 1-3 4a59 59 0 01-6 12c-2 4-5 4-8 0l-3-4a4 4 0 00-2-1c-5 1-6 1-7-4s-1-5-5-4c-5 1-7-1-6-6a10 10 0 00-3 4l-4 13a2 2 0 000 1c1 3 0 6-3 7s-4 2-7 1c-3-2-5 0-6 3l-1 12c0 3-2 6-5 8l-3 5-5 9-6 7c-3 4-8 4-12 1l-1 5-2 7a10 10 0 01-5 8 16 16 0 00-6 6c-2 3-3 4-6 1a23 23 0 00-1-2l-2-1a2 2 0 00-1 2l3 6c2 0 2 2 3 4l-2 2-3-3h1-6c-2 0-2-3-3-4 0 6 3 10 6 15l-3 1c-4 1-2 4-1 5 0 3 2 2 3 1l10-5c6-1 10-5 14-9 7-7 14-14 16-24l2-3a22 22 0 01-5 16l-14 16 18-1a21 21 0 014 1v1l-16 2a46 46 0 00-20 5l-28 14a16 16 0 00-5 4c-2 3-1 5 1 6l4 2c4 2 7 2 11 1l9-3 8-2 12-4 18-3c7-1 14-4 21-4l41-1 8 1c4 3 9 3 14 3a17 17 0 013 1c14 3 28 5 41 9a16 16 0 003 1q8 2 7-7v-4c-1-6-5-11-10-11h-19c-2-4-5-3-8-3l-28-4c-5-1-10-2-16 0a5 5 0 01-2-1c-9-4-18-4-27-2-3 0-7 1-11-1zm-18-98c-1 4 2 7 4 10a4 4 0 002-2l1-2c0-5 2-8 7-6 2 0 3 0 5-2 3-4 2-7 1-11-3 0-5-2-5-4l1-3h1v2a19 19 0 003 3l1-2 1-7a5 5 0 012-3 20 20 0 007-11l1-4c3 4 0 8-1 11 3 3 6 4 8 2 4-2 5-5 3-9-5 1-5 1-7-4v-1c-1-4-3-4-5-2l-5 5v-7l8-2-8-4-3-1-3-1 2-2 7-5c5-3 5-8 2-12-1 3-3 5-6 5-6 1-8 3-9 8l-4-5c0-3 2-3 4-4l3-3c1-3 2-3 5-2 1-4 1-8 5-10l-4-3c-4-4-4-7-2-12 1-1 3-3 3-5a17 17 0 000-6 46 46 0 00-1-5l-1-5a121 121 0 00-10-7l-4 6a12 12 0 000 4l-1 7v6c-6 5-5 12-3 19l-1 3a5 5 0 01-4-1l-3-3c-2-3-4-3-6 0a49 49 0 01-5 5 2 2 0 01-2 1 3 3 0 01-1-3 5 5 0 011-2c3-4 7-7 12-8l2-2a6 6 0 00-10-4l-3 3a15 15 0 01-4 1v-3a20 20 0 015-6c4-2 5-4 3-8-2-5-4-11-3-17l-2 1c-4 3-9 2-9-2s-2-6-5-8l-1-1-5-2v1c2 1 4 3 4 7l-2-1c-2-3-5-4-9-2-3 1-6-1-7-3a11 11 0 00-7-5l-1-1 1-2c-2-1-5-3-4-6s0-3-2-3a8 8 0 00-3-1c-6 1-9-2-11-7-1-3-3-5-7-4-4 0-7-1-9-5a18 18 0 01-1-4h4l1-1c-1-2-2-3-5-3s-2 2-2 4a23 23 0 010 4l-5 29c0 7-1 14-5 20a127 127 0 00-12 30c-2 10-6 19-10 29-1 3-2 6 0 9s3 3 5 1l6-5c3-3 7-3 11-2a110 110 0 0011 3l3-1a14 14 0 00-1-3l-4-5v-3l3 1 13 13a7 7 0 002 2c5 2 7 6 8 11a8 8 0 005 7 7 7 0 014 3l7 23a8 8 0 010 3h-1l-4-10-3-5-6-6a19 19 0 00-3-3l-6-5c-1-1-3-4-2-5 1-4-1-6-4-8l-3-2c-2-3-5-3-8-3s-5 1-6 3a9 9 0 00-2 10l-4 2 4 2 14 7a10 10 0 015 9l-2 4-2-2c-2-3-3-5-6-4s-2 3-3 6c0 3 0 6-2 8-1 2-3 4-6 5s-3 3-2 5 1 2 3 2l5 4v2a2 2 0 01-2 0 11 11 0 01-2-1 66 66 0 00-6 5c-3 3-2 3-6 0l-2 4a34 34 0 001 7 6 6 0 001 4l8 6c4-4 4-4 11-2a3 3 0 002-1c2-2 4 0 5 2a28 28 0 004 4c3 2 6 2 9-1l-2-1c-3-2-3-2 0-5a10 10 0 003-8v-3c3 2 4 4 3 6l-2 4a3 3 0 000 2h2c3-1 6 0 9 1l7 2c2 1 5 1 5 5a7 7 0 001 0 2 2 0 001-1c4-4 8-5 13-3a7 7 0 002 1c3 0 7 0 9-3-6-1-6-1-6-5 5 2 8 2 10-1 2-2 2-6 0-9a14 14 0 01-3 1 2 2 0 01-1 0l-1-2a56 56 0 016-6h3l-1 3c-2 2-2 4 0 7 2 4 2 6-2 9l-4 3 5 2-1-1 6-5a18 18 0 002-3l2-4c2-2 4 0 5 2a3 3 0 000 1l3 1a3 3 0 002-2c0-3-1-4-5-5 5-2 4-6 4-10-1-2-1-4-4-4s-4 1-4 3c-1 3-3 3-4 0-3 3-5 2-6-1l-3-7c-1-3-1-6 2-8-1 4 0 8 4 10l4 4 7-7h3c3 1 5 1 5-2a11 11 0 000-5c-2-7 3-11 7-15h2v2c0 2-2 3-3 5-2 4-4 8-3 12 1 8 1 8-6 6zm56-182l-2-6c-3-4-8-3-12-3l-2 4a18 18 0 00-1 2c-1 2 0 3 2 2h2a81 81 0 019 0l1 3a5 5 0 01-3 2l-6 1c-2 0-4 2-6 0a2 2 0 00-2 0c-4 2-4 2-5-2v-1c-3-1-2-3 0-4l-2-4c-2-5-8-7-13-5l-3-1 2-3a68 68 0 018 0l-1-3-4-9c-1-3-3-3-4-2a23 23 0 00-3 7l-2 3-5-1a7 7 0 01-2-5l2-4c3 0 4-3 7-4s3-3 3-6h-12c3-3 7-3 10-3l2-2-2-2a54 54 0 00-9 0l-8 2-10 1c6 4 8 9 10 16-4-4-5-10-10-13-4 12-4 16 3 27 1 2 2 3-1 5s-3-1-4-2l-3-5c-1 14 4 26 15 29-3-13-4-26 4-38l7 20v1l-8-12c-2 8-1 22 3 31v4a12 12 0 01-3 5l-4-3c-2-2-4-4-7-3 2 14 12 18 22 20a25 25 0 01-1-4v-16l2-2 2 1 1 6a59 59 0 004 5c4-7 3-14 1-20a3 3 0 00-2-2c-6-1-5-7-6-11l2 3 2-2-2 4a12 12 0 002 1c4 1 6 4 6 7 2 7 4 14 4 22-1 4 1 6 6 7a36 36 0 010-4c1-6 4-8 8-8l10 2v5a8 8 0 001-1 62 62 0 0120-26c6-5 11-11 12-20 0-5 0-10-3-15l-5 5c-1 4-3 5-6 3l-2 1c-5 1-6 0-8-4a8 8 0 00-4-4 5 5 0 00-6 2 37 37 0 00-2 8l1 4a17 17 0 006 0l2-1-1 1 8 2c3 0 5-2 7-3zm-85-5c-6 1-7 0-6-6 0-3-2-5-4-6a29 29 0 01-10-11c-2-4-5-4-9-4-5 0-5 0-4-4a16 16 0 000-2c-3-1-5-2-7 2a4 4 0 01-2-1l-1-3c1-3 0-6-3-9-2 0-2-2-3-4l-8-6-3 4c-3 0-5 1-7-2l5-3-9-2c-3 0-6 2-8 5-1 2 1 3 2 5a10 10 0 012 3c1 3 0 3-3 3a47 47 0 00-8 0 5 5 0 00-3 2l1 3 2 5c2 6 8 9 14 7l6-3c2-1 3-1 4 2l-13 6c-4 1-5 4-6 7s1 4 3 6a45 45 0 016 4c2 3 5 4 8 3a20 20 0 0012-8 20 20 0 013-4 2 2 0 012 0 2 2 0 011 2l-8 9a17 17 0 01-3 3c3 6 3 6 9 4a5 5 0 012 0c5 0 8-3 10-7l1-3 4-2 3 3a21 21 0 01-4 6c-1 2-3 3-1 5 2 4 3 4 6 4h7c2 2 4 1 5-1a33 33 0 015-6h4a3 3 0 010 3l-8 8-2 5a9 9 0 005 7c1-5 2-5 6-3l5 4c2 1 3 3 4 2 5-1 6 2 8 5l3 5h4v-2c-2-6-8-9-12-15a3 3 0 00-1 0 4 4 0 01-1-5c1-2 0-4-2-5-3-2-3-3-1-7l1-2zm217-14c-6 1-11 3-14 7l-7 9c-3 4-6 6-11 7-3 0-4 1-5 4a48 48 0 00-2 5 9 9 0 01-8 6 5 5 0 00-4 4l-2 3c-3 1-3 4-4 6-2 4-3 4-8 4l-4 2-10 13c-4 5-10 7-13 13l-7 9a4 4 0 000 3c2 7 2 8-5 10h-1l5 7 3-5c1-4 3-6 7-6a9 9 0 009-7c1-2 4-4 8-3 4 0 7-2 8-6 0-6 4-8 10-6s7 2 10-4a54 54 0 012-6c3-5 10-5 13 0 1 3 4 3 6 1a13 13 0 004-4c1-3 3-5 7-5a20 20 0 003 0c6-1 12-9 13-14 0-3-1-4-3-3-13 4-26 7-37 14l-40 26-12 9a5 5 0 012-3l18-13 46-29c6-4 14-6 21-9a47 47 0 011-5l2-5c2-10 0-19-1-29zm-129 94l-6-5a3 3 0 00-2-1l-1 2 1 7v5c-1 3 0 4 2 6 8 5 9 9 7 18l-2 9-3 10a17 17 0 00-1 4 8 8 0 01-4 9c-2 1-2 3-1 5a27 27 0 013 6c1 4 3 6 7 6h4c6 0 7-2 6-7a4 4 0 01-1-2l1-3h1l2 2c4 8 2 12-5 15a3 3 0 00-2 2l1 6c1 3 3 5 2 9l1 2 2-2a69 69 0 001-10c0-4 0-4 5-4a64 64 0 007-1v-1l-7-8 2-2c3-3 3-6 1-10s-5-5-9-4c-6 1-8-1-11-5-4 1-5 0-3-4 1-6 5-9 11-10 5-1 6-3 5-7a47 47 0 00-2-9c-1-3-2-4-6-4h-2a4 4 0 011-4c1-1 8 0 9 2 7 7 5 20-3 25l-6 3c4 1 7 2 11 0a6 6 0 002-2l4-8a7 7 0 002-7c0-3-3-6-5-9l-2-6a28 28 0 014-1c2 0 3-1 2-2-1-2-2-5-4-6a112 112 0 00-13-6c-2-1-4 0-5 1a3 3 0 000 5 58 58 0 005 4c-3 1-7-1-9-5-2-3-1-5 3-8zm43-77l2 1c5 2 6 5 2 8a31 31 0 00-4 6 9 9 0 00-2 5c1 3 2 3 5 1 6-3 8-9 8-15l2-3 2 2-1 9a34 34 0 01-8 9c-5 4-10 4-15 1l-6-5a3 3 0 00-2 0c-3 1-5 6-4 10a64 64 0 004 7c4 6 4 9-2 14-1 1-2 3-1 5 1 1 0 2-1 3a3 3 0 00-1 3 5 5 0 002 3c6 2 11-2 11-8a30 30 0 000-5c-1-4 0-6 4-8l3-1a22 22 0 01-4-3l-2-4a7 7 0 014-3c1-1 3 0 4 1l2 4 3-1c3-1 3-3 1-5l-1-1v-3h2c3 0 5 2 7 3l4-6c2-3 2-6 0-10a5 5 0 01-1-4l4-13c1-3 1-6-2-7l-4 4a5 5 0 01-4-1v-4a14 14 0 011-3c-2-1-3-1-4 1-2 5-3 5-8 3a11 11 0 00-1-1c3 3 5 6 1 11zm-62-21l-1-1a16 16 0 01-2 0c-3 0-3-1-2-4a7 7 0 000-5c-1-2-1-4 1-5s3-3 1-4c-2-2-3-4 0-6l1-1a9 9 0 01-3-1 30 30 0 01-3-2l2-2 2-1 2-2-3-2-1-1a3 3 0 011-2 30 30 0 013-2c-6-3-1-5 0-7-5-1-6-1-3-6v-3c-2-2-1-3 1-5 3-1 5-4 5-8l-4 4V7l-1-2h-10c-4 1-6 6-5 11 2 4 2 9 0 14a13 13 0 000 6c1 10 2 19 0 29-1 4 1 6 5 6s5 1 5 5a11 11 0 003 8zm-63-4l2-7a11 11 0 000-11c-4-5-8-10-14-14l-7-5c-3 6-3 13-4 19-1 9 3 17 10 23l11 9 1-5c2-2 1-4-1-7L97 55l-2-6h1l14 24zM83 45c2-7 2-14-6-18a129 129 0 00-12-5c-2-1-3-1-3 2 0 10 3 18 7 27 2 6 8 8 14 10a11 11 0 010-3c1-5-1-9-4-12a124 124 0 01-7-11 9 9 0 01-1-2l1-1zm194 29h-1l-1 1c0 6-3 10-8 12a8 8 0 00-4 3c-4 9-8 17-2 27a27 27 0 002 3l2-3c2-3 3-6 6-8 2-1 3-3 3-5-1-3 0-6 3-8s3-5 2-8v-8a43 43 0 00-2-6zm-60 34c-7 2-15 1-20 7l-7 7-12 26v4l1-1 1-4c5 1 7-2 9-6a32 32 0 016-8l17-16a13 13 0 005-9zm30-62c-14-1-29 14-29 29a51 51 0 014-5l9-7h3l-1 2-12 11-3 5v1l10-6a23 23 0 0012-13l7-17zm-56 119l4-2a10 10 0 005-10v-13c-2 1-5 1-7 3l-7 9a13 13 0 00-2 4l-1 9 2-2 5-7 3-1a3 3 0 011 3 9 9 0 01-3 4c-3 3-3 7 2 9a20 20 0 007 1c3 0 5-2 5-5l-2-8c-4 4-7 6-12 6zm91-68c4 2 9 0 9-4 1-7 4-12 6-18 1-3 1-5-1-7a19 19 0 01-2-6l-1-6-5 4-3 6c-3 4-3 9 0 13 3 5 3 9 0 13l-3 5zm-117 58c1-7-12-23-20-25l1 13c2 8 6 13 14 16a30 30 0 004 1v-1l-9-9 1-1zm11-99l12 1a137 137 0 0117 8c2 1 3 1 4-1s3-1 4 1a22 22 0 002 1l5-8-8-1c-3 0-6 0-9-2a12 12 0 00-6-2l-18 1-3 2zm70 9a17 17 0 014 2c2 1 4 1 6-2 4-6 5-13 7-20-9 4-16 10-17 20zM45 28c4 10 12 17 19 23a5 5 0 000-2c-3-5-6-11-5-17a4 4 0 00-2-3c-4-2-7-2-12-1zm129 121l4-11c1-2 1-6-2-7s-6 0-9 1l-1 2a18 18 0 008 15zm33 10c2-2 2-3 1-6-1-5-1-10 3-14 2-2 3-4 1-7-1-1-2-3-1-5l-1-3-13 13c4-1 7-3 10 1 1 3 1 6-1 8l-1 5c-1 3 0 6 2 8zm-25-90a12 12 0 012-2h3c3 5 8 5 14 6h4l-1-3-18-9h-9zm27 95c-1 3-1 5 1 7a3 3 0 011 2c-1 3 0 7 3 9s5 1 5-2a7 7 0 000-4 4 4 0 011-5c1-2 1-4-2-5a94 94 0 00-9-2zm44-83l5 2a7 7 0 003 0 15 15 0 0012-17c-1-4-4-6-7-5l3 11c0 4 0 5-5 4a14 14 0 00-11 5zm43 5l2 2 3-2 4-9a8 8 0 000-8l-1-5c1-3 0-4-2-6a4 4 0 00-4 1c-1 1-2 3 0 4a8 8 0 014 9 49 49 0 01-3 7l-3 7zm7 181l14 4c2 0 4 0 5-2s2-4 0-6c-1-1-6-3-8-1l-11 5zm8-194c2-3 1-6 2-8a5 5 0 012-3c2-2 0-4 0-5l-2-2a11 11 0 00-3 1c-3 0-3 1-2 3v5c-1 3 0 6 3 9zm-71 5c-1-2-2-2-4-1l-16 8c-2 1-3 3-2 6l12-7 10-6zM80 113l-1-1a8 8 0 00-1 1c-3 1-6 1-8-2a15 15 0 01-3-3c-1-2-2-3-3-2l-1 6v4c1 2 2 2 4 1a61 61 0 016-2l7-2zm148-5l-7 2c-2 0-3 2-1 4l8 6zm92-45h-4l-3 13 2 1c5-3 4-9 5-14zM96 341l4 9a15 15 0 002 3h2a11 11 0 000-4l-2-6c-2-4-2-4-6-2zm41-43c7 2 9 1 10-5a11 11 0 010-2c1-3 1-4-3-5 1 6-2 9-7 12zm-94 21c-3 0-5 0-5 3l3 3c3 0 4-1 4-4 1-2-1-3-2-2zm84-156c1 4 5 7 9 6 1 0 2-2 1-3-3-2-6-4-10-3zm111-59c-3-3-5-4-6-2a6 6 0 001 8zm-137 29l11 7c0-3-1-5-4-6l-6-2-1 1zm126-41c-6 0-10 2-11 5 10-1 11-2 11-5zM71 329l1 1 7-5-1-2c-2-2-5 0-6 2l-1 4zm66-176l-6-8c-2 6 0 8 6 8zm3 155c-2-1-5 0-7 4 4 3 6 0 7-4zm-82 25l8 3 1-1-3-6zm142-157l10 5c-1-4-4-6-10-5zM62 320c5-1 6-2 6-4-2-3-4-1-5-1zm100-131c1-3 3-6 1-9-4 5-4 6-1 9zm54-84c-6-2-9-1-10 4zM86 139c3 2 5 1 8 0-3-3-5-3-8 0zm104 63c-5 5-6 9-3 11zm-52-58l5 7c0-6-1-8-5-7zm31 89v1l3 5 3-3zm-5-8l2 1a15 15 0 003-2v-1a26 26 0 00-3 1 12 12 0 00-2 1zm13-19l-1 1a12 12 0 004 2l1-3v-1zm-44-31v-1h-5l1 3zM90 321c3 4 4 4 6 1zm26 18v-2l-5-1v2zm140-215zm-33-25l1 2h4v-2z"/><path d="M287 184l-7 3-16 6-5-1 29-18c-6-3-11-5-16-2l-15 10a18 18 0 01-5 3v-1c11-10 22-18 36-21 8-2 14 1 20 5 2 2 1 4-1 6-4 4-4 4-2 9a48 48 0 011 5c1 4 0 4-3 6-2 0-3 2-5 3l-17 10a14 14 0 01-3 0c4-3 10-3 12-8a14 14 0 01-3 1 22 22 0 01-6-1l-2-3h3c5 2 12 0 14-5l-1-2-1 1c-2 4-4 5-6 4s-3-5-1-8a9 9 0 000-2zM225 347a7 7 0 011 2c1 10 8 17 14 25a39 39 0 013 4l-1 1-7-8-7-11c-3-4-4-8-3-13zM103 191c-2-4-4-5-8-5l-8 1a7 7 0 00-3 0 35 35 0 01-19 5c-4 0-6 4-5 8l3 5-9-5a4 4 0 01-1-6l2-2c2-5 1-5-2-9l-10-15c-1-2-3-1-4 0-5 4-8 9-10 15l-4 10a6 6 0 01-2 3 7 7 0 010-2l5-20a11 11 0 014-5c5-4 9-8 8-16l2-5 2-8 7-13h1l-3 7a49 49 0 00-1 7 32 32 0 01-1 3c-1 4 0 6 4 6 3 0 6 2 8 5a7 7 0 004 2l23 5a2 2 0 001 0c5-1 10 0 15 2a6 6 0 013 1 20 20 0 0010 6l2 3-3 1-10-4a87 87 0 00-11-4c-3-1-4 1-2 3a83 83 0 007 7l6 5 4 6c2 2 2 4-1 5a19 19 0 01-7 1l-2-2a18 18 0 012-1 15 15 0 013 0zm-39-16c4 1 5 2 5 5 0 2-1 4-3 5-5 1-5-3-5-6-3 4-1 9 3 10l17-3-10-10c-2-3-4-2-7-1zm16-6l-2 1 6 7v-1zM113 244l-2-6c0-2-3-4 0-5s3 2 4 4a17 17 0 011 4c1 2 1 4 4 4s4-2 3-5a14 14 0 00-3-5c-5-6-5-10 0-16 2-2 3-4 2-7-2-3-1-6 2-8a19 19 0 003-3c1-2 1-3 3-2a3 3 0 011 5 6 6 0 01-1 1c-3 3-5 6-3 10l2 8a7 7 0 001 2l1-1a23 23 0 00-1-3c-1-3-2-6 0-9l4-3a25 25 0 011 4v9c1 3 2 3 5 3 1-1 3-2 3 1 1 2-1 3-3 3-3-1-5 1-7 4l-6 8-1 3c0 4-3 5-5 7l-11 11a7 7 0 00-2 2l-4 15a3 3 0 01-2 2l-2-2a4 4 0 011-2c1-2 3-3 3-5a28 28 0 00-2-9l-4-2c-3 0-4-1-4-4l1-5h1a57 57 0 003 5 17 17 0 004 4l4 1v-4l-5-8a7 7 0 01-1-4l1-2h1l1 7c0 2 1 5 4 4s3-3 4-5c0-3-2-4-4-5l-2-1a2 2 0 011-2 2 2 0 012 0 27 27 0 013 2zm10-22c-4 2-4 5-2 9l2 3a5 5 0 003 2 3 3 0 002-2c2-2 1-8-1-9l-4-3z"/><path d="M126 276a19 19 0 01-4-3 72 72 0 01-5-6c-3-5-1-11 5-12a7 7 0 004-3l3-5c-3 7-2 13 4 18l-3-1a16 16 0 01-3-3c-1-2-2-3-4-2l-3 4a12 12 0 005 11l1 1zM80 301l13-3c1 2 0 3-2 4l-11 1-4 1a18 18 0 01-3 0 35 35 0 010-4 4 4 0 012-1l2-3 3 4zM145 201l5-2 3 1-1 3a27 27 0 01-6 2 1 1 0 01-1 0c-3-3-4-9-2-13l3-1 1 3a67 67 0 01-2 7zM103 304l-3 4-7 2-6 1a11 11 0 01-3-1l1-2a55 55 0 019-3l8-2zM86 256c5 1 7 4 6 9-1 4-1 8 2 11l1 2a7 7 0 01-3 0c-3-2-5-6-4-11s0-6-2-11zM60 290l-2-1 1-12v-8a3 3 0 013 2v6c-3 4-2 8-2 12zM102 284c1-2 2-1 4-1a5 5 0 013 6 10 10 0 01-1 3l-4 8c-2-1-2-3-1-5l3-4c1-3 0-5-4-7zM148 241h3a24 24 0 014 6l-3 3a29 29 0 00-2-5 22 22 0 00-2-3zM54 280c0 3-4 6-7 5l-1-1a3 3 0 010-1 64 64 0 015-5 2 2 0 012 0 3 3 0 011 2zM68 272a62 62 0 016 3c1 1 2 3 1 4s-3 0-4-1l-2-3a18 18 0 01-2-3zM49 308l-3-2c-1-4 0-6 4-7v8zM140 238a19 19 0 012-3 13 13 0 013-2l1 3a4 4 0 01-2 3l-4-1zM110 196a5 5 0 01-3 7c-2-4-1-6 3-7zM70 237l-2 2-3-5 2-2zM86 198a41 41 0 01-3 4l-2-2a9 9 0 013-3l2 1zM95 199l-2-3 1-3 3 3-2 3zM92 199l-3 2-3-2 3-2 3 2zM78 201l-3 3-2-2a7 7 0 013-3l2 2zM83 275v8l-2 2-1-1a9 9 0 011-2l2-7zM139 241l-8 3c2-4 5-5 8-3zM184 120l1-9a9 9 0 012-4 163 163 0 0113-12l-2 5-14 20zM176 121c-3-1-5-2-4-5l-2-7 6 1c2 0 3 1 2 3a63 63 0 00-2 8zM158 106c-1-1-3-2-2-3l3-2 1 2-1 3z"/></svg>